<svg width="17" height="16" viewBox="0 0 17 16" fill="none" xmlns="http://www.w3.org/2000/svg">
<g clip-path="url(#clip0_1_6632)">
<path d="M5.2998 14.3665H13.5615C13.483 14.4076 13.3946 14.4329 13.2998 14.4329H5.2998C5.28151 14.4328 5.2666 14.418 5.2666 14.3997C5.26678 14.3815 5.28162 14.3666 5.2998 14.3665ZM13.7998 1.87134C13.8411 1.9499 13.8662 2.03817 13.8662 2.13306V13.8665C13.8662 13.9613 13.841 14.0496 13.7998 14.1282V1.87134ZM7.19043 5.57642L9.58984 7.97681C9.59642 7.98338 9.59968 7.99163 9.59961 8.00024L9.58984 8.02368L7.19043 10.4231C7.1774 10.4361 7.15561 10.4361 7.14258 10.4231C7.13631 10.4165 7.1337 10.4081 7.13379 10.3997L7.14355 10.3762L9.48633 8.03345H1.0332C1.01494 8.03338 1.00014 8.01849 1 8.00024C1 7.98188 1.01486 7.96711 1.0332 7.96704H9.48633L8.63281 7.11353L7.14355 5.62329C7.13701 5.61675 7.13376 5.60842 7.13379 5.59985L7.14355 5.57642C7.15012 5.56997 7.15846 5.56657 7.16699 5.56665L7.19043 5.57642ZM5.2998 1.56665H13.2998C13.3943 1.56665 13.4822 1.59219 13.5605 1.63306H5.2998C5.28149 1.63295 5.2666 1.61819 5.2666 1.59985C5.26667 1.58157 5.28153 1.56676 5.2998 1.56665Z" fill="#09090B" stroke="#09090B"/>
</g>
<defs>
<clipPath id="clip0_1_6632">
<rect width="16" height="16" fill="white" transform="translate(0.5)"/>
</clipPath>
</defs>
</svg>
