<svg width="17" height="16" viewBox="0 0 17 16" fill="none" xmlns="http://www.w3.org/2000/svg">
<g clip-path="url(#clip0_1_6604)">
<path d="M8.55249 0.56308L8.59839 0.593353L15.7976 7.67538V7.67636C15.839 7.71706 15.85 7.77694 15.8298 7.82773L15.7996 7.8746C15.7588 7.91576 15.6988 7.926 15.6482 7.90585L15.6013 7.87558L14.7175 7.00546L13.8669 6.16855V13.3336C13.8668 13.3519 13.8511 13.3668 13.8328 13.3668H3.16675C3.14846 13.3668 3.13369 13.3519 3.13354 13.3336V6.16855L2.28296 7.00546L1.39819 7.87558C1.35674 7.91636 1.29632 7.92603 1.24585 7.90488L1.19995 7.8746C1.15928 7.83326 1.14973 7.77265 1.17065 7.72226L1.2019 7.67636L8.4021 0.593353C8.44302 0.553309 8.50243 0.542893 8.55249 0.56308ZM7.46655 13.3004H10.6003V9.10019H7.46655V13.3004ZM13.7996 6.10312L13.6501 5.95663L8.85034 1.23495L8.49976 0.889252L8.14917 1.23495L3.34937 5.95663L3.19995 6.10312V13.3004H7.40015V9.06699C7.40015 9.04858 7.41494 9.03378 7.43335 9.03378H10.6335C10.6518 9.03395 10.6667 9.04865 10.6667 9.06699V13.3004H13.7996V6.10312Z" fill="#09090B" stroke="#09090B"/>
</g>
<defs>
<clipPath id="clip0_1_6604">
<rect width="16" height="16" fill="white" transform="translate(0.5)"/>
</clipPath>
</defs>
</svg>
