<svg width="17" height="16" viewBox="0 0 17 16" fill="none" xmlns="http://www.w3.org/2000/svg">
<path d="M8.49976 1.43332C10.359 1.43332 11.8667 2.94038 11.8669 4.79953C11.8669 6.33389 10.8393 7.62975 9.43433 8.03488L9.51245 9.01242C10.6303 9.14865 11.5619 9.52211 12.2722 10.1579L12.4109 10.2888C13.3324 11.197 13.8396 12.5853 13.8396 14.5066C13.8396 14.5084 13.8396 14.5094 13.8396 14.5095L13.8357 14.5134H13.8328C13.8292 14.5132 13.8269 14.5102 13.8269 14.5066C13.8269 12.7073 13.3813 11.3781 12.5691 10.4734L12.4021 10.2986V10.2976C11.4839 9.39276 10.1522 8.96652 8.49976 8.96652C6.95079 8.96654 5.68398 9.34129 4.77515 10.1335L4.59741 10.2976C3.67925 11.2025 3.17358 12.5875 3.17358 14.5066C3.17358 14.5084 3.17265 14.5094 3.17261 14.5095L3.17163 14.5114C3.17068 14.5124 3.16914 14.5122 3.1687 14.5124C3.16844 14.5125 3.16804 14.5134 3.16675 14.5134C3.16489 14.5134 3.16392 14.5125 3.16382 14.5124L3.16187 14.5114C3.16107 14.5106 3.16015 14.51 3.15991 14.5095C3.15987 14.5094 3.15991 14.5084 3.15991 14.5066C3.15991 12.7054 3.60563 11.3725 4.42065 10.4646L4.58862 10.2888C5.31469 9.57323 6.29471 9.15772 7.48706 9.01242L7.56519 8.03488C6.16019 7.62974 5.13354 6.33389 5.13354 4.79953C5.13379 2.94043 6.64061 1.43339 8.49976 1.43332ZM8.49976 1.44699C6.64798 1.44706 5.14649 2.94779 5.14624 4.79953C5.14624 6.65148 6.64782 8.15297 8.49976 8.15305C10.3517 8.15305 11.8533 6.65152 11.8533 4.79953C11.853 2.94775 10.3516 1.44699 8.49976 1.44699Z" fill="#09090B" stroke="#09090B"/>
</svg>
