<svg width="17" height="16" viewBox="0 0 17 16" fill="none" xmlns="http://www.w3.org/2000/svg">
<g clip-path="url(#clip0_1_6580)">
<path d="M14.2002 8.94629C13.9192 9.04565 13.6159 9.09961 13.2998 9.09961H8.5332V10.1338C8.53296 10.152 8.51825 10.167 8.5 10.167C8.48175 10.167 8.46704 10.152 8.4668 10.1338V9.09961H3.7002C3.38413 9.09961 3.08089 9.0457 2.7998 8.94629L2.13379 8.71094V12.2666C2.13379 12.8372 2.59627 13.2998 3.16699 13.2998H13.833C14.4037 13.2998 14.8662 12.8373 14.8662 12.2666V8.71094L14.2002 8.94629ZM10.5996 0.803711C10.6412 0.882473 10.6669 0.971181 10.667 1.06641V2.63379H15.4336C15.5285 2.63383 15.6168 2.65893 15.6953 2.7002H1.30469C1.38324 2.65893 1.47152 2.63383 1.56641 2.63379H6.33301V1.06641C6.33305 0.971181 6.35885 0.882473 6.40039 0.803711V2.63379H10.5996V0.803711ZM6.90039 0.5H10.0996C10.194 0.5 10.2821 0.525586 10.3604 0.566406H6.63965C6.71792 0.525586 6.806 0.5 6.90039 0.5ZM2.06641 8.56152L1.90039 8.41211C1.34795 7.91765 1.00011 7.20004 1 6.40039V3.2002C1 3.10544 1.02528 3.01697 1.06641 2.93848V6.40039C1.06652 7.20776 1.4304 7.93001 2.00293 8.41309L2.12012 8.50684C2.56025 8.83739 3.10745 9.0332 3.7002 9.0332H8.4668V8C8.4668 7.98159 8.48159 7.9668 8.5 7.9668C8.51841 7.9668 8.5332 7.98159 8.5332 8V9.0332H13.2998C13.8186 9.0332 14.3023 8.88304 14.71 8.62402L14.8799 8.50684C15.5196 8.02634 15.9335 7.2616 15.9336 6.40039V2.93848C15.9747 3.01697 16 3.10543 16 3.2002V6.40039C15.9999 7.20001 15.652 7.91763 15.0996 8.41211L14.9336 8.56152V12.2666C14.9336 12.8741 14.4405 13.3662 13.833 13.3662H3.16699C2.55948 13.3662 2.06641 12.8741 2.06641 12.2666V8.56152Z" fill="#09090B" stroke="#09090B"/>
</g>
<defs>
<clipPath id="clip0_1_6580">
<rect width="16" height="16" fill="white" transform="translate(0.5)"/>
</clipPath>
</defs>
</svg>
