<svg width="17" height="16" viewBox="0 0 17 16" fill="none" xmlns="http://www.w3.org/2000/svg">
<path d="M4.23291 1.56668H9.56689L9.59033 1.57645L13.8569 5.84305C13.8631 5.8493 13.8666 5.85778 13.8667 5.86649V13.3333C13.8667 13.9406 13.3744 14.4326 12.7671 14.4329H4.23291C3.62558 14.4327 3.1333 13.9406 3.1333 13.3333V2.66629C3.13351 2.05908 3.6257 1.56689 4.23291 1.56668ZM4.23291 1.63309C3.66253 1.6333 3.19992 2.09591 3.19971 2.66629V13.3333C3.19971 13.9038 3.66237 14.3663 4.23291 14.3665H12.7671C13.3375 14.3662 13.8003 13.9038 13.8003 13.3333V5.89969H9.56689C9.54849 5.89969 9.53369 5.88489 9.53369 5.86649V1.63309H4.23291ZM9.6001 5.83328H13.7524L9.6001 1.68094V5.83328Z" fill="#09090B" stroke="#09090B"/>
</svg>
