<svg width="188" height="49" viewBox="0 0 188 49" fill="none" xmlns="http://www.w3.org/2000/svg">
<path d="M7.46094 37H0.3125V2.73438H19.9531V8.6875H7.46094V17.5234H19.0859V23.4531H7.46094V37ZM33.2422 10.7969V37H26.0938V10.7969H33.2422ZM29.6797 0.53125C30.7422 0.53125 31.6562 0.78125 32.4219 1.28125C33.1875 1.76563 33.5703 2.67969 33.5703 4.02344C33.5703 5.35156 33.1875 6.27344 32.4219 6.78906C31.6562 7.28906 30.7422 7.53906 29.6797 7.53906C28.6016 7.53906 27.6797 7.28906 26.9141 6.78906C26.1641 6.27344 25.7891 5.35156 25.7891 4.02344C25.7891 2.67969 26.1641 1.76563 26.9141 1.28125C27.6797 0.78125 28.6016 0.53125 29.6797 0.53125ZM55.6484 10.3047C58.4453 10.3047 60.6953 11.0703 62.3984 12.6016C64.1016 14.1172 64.9531 16.5547 64.9531 19.9141V37H57.8047V21.6953C57.8047 19.8203 57.4609 18.4062 56.7734 17.4531C56.1016 16.5 55.0391 16.0234 53.5859 16.0234C51.3984 16.0234 49.9062 16.7656 49.1094 18.25C48.3125 19.7344 47.9141 21.875 47.9141 24.6719V37H40.7656V10.7969H46.2266L47.1875 14.1484H47.5859C48.1484 13.2422 48.8438 12.5078 49.6719 11.9453C50.5156 11.3828 51.4453 10.9688 52.4609 10.7031C53.4922 10.4375 54.5547 10.3047 55.6484 10.3047ZM93.1016 27.4844C93.1016 29.5156 92.6094 31.2812 91.625 32.7812C90.6406 34.2812 89.2031 35.4375 87.3125 36.25C85.4375 37.0625 83.1562 37.4688 80.4688 37.4688C79.2812 37.4688 78.1172 37.3906 76.9766 37.2344C75.8516 37.0781 74.7656 36.8516 73.7188 36.5547C72.6875 36.2422 71.7031 35.8594 70.7656 35.4062V28.6562C72.3906 29.375 74.0781 30.0234 75.8281 30.6016C77.5781 31.1797 79.3125 31.4688 81.0312 31.4688C82.2188 31.4688 83.1719 31.3125 83.8906 31C84.625 30.6875 85.1562 30.2578 85.4844 29.7109C85.8125 29.1641 85.9766 28.5391 85.9766 27.8359C85.9766 26.9766 85.6875 26.2422 85.1094 25.6328C84.5312 25.0234 83.7344 24.4531 82.7188 23.9219C81.7188 23.3906 80.5859 22.8203 79.3203 22.2109C78.5234 21.8359 77.6562 21.3828 76.7188 20.8516C75.7812 20.3047 74.8906 19.6406 74.0469 18.8594C73.2031 18.0781 72.5078 17.1328 71.9609 16.0234C71.4297 14.8984 71.1641 13.5547 71.1641 11.9922C71.1641 9.94531 71.6328 8.19531 72.5703 6.74219C73.5078 5.28906 74.8438 4.17969 76.5781 3.41406C78.3281 2.63281 80.3906 2.24219 82.7656 2.24219C84.5469 2.24219 86.2422 2.45312 87.8516 2.875C89.4766 3.28125 91.1719 3.875 92.9375 4.65625L90.5938 10.3047C89.0156 9.66406 87.6016 9.17188 86.3516 8.82812C85.1016 8.46875 83.8281 8.28906 82.5312 8.28906C81.625 8.28906 80.8516 8.4375 80.2109 8.73438C79.5703 9.01562 79.0859 9.42187 78.7578 9.95312C78.4297 10.4688 78.2656 11.0703 78.2656 11.7578C78.2656 12.5703 78.5 13.2578 78.9688 13.8203C79.4531 14.3672 80.1719 14.8984 81.125 15.4141C82.0938 15.9297 83.2969 16.5312 84.7344 17.2188C86.4844 18.0469 87.9766 18.9141 89.2109 19.8203C90.4609 20.7109 91.4219 21.7656 92.0938 22.9844C92.7656 24.1875 93.1016 25.6875 93.1016 27.4844ZM105.898 10.7969V37H98.75V10.7969H105.898ZM102.336 0.53125C103.398 0.53125 104.312 0.78125 105.078 1.28125C105.844 1.76563 106.227 2.67969 106.227 4.02344C106.227 5.35156 105.844 6.27344 105.078 6.78906C104.312 7.28906 103.398 7.53906 102.336 7.53906C101.258 7.53906 100.336 7.28906 99.5703 6.78906C98.8203 6.27344 98.4453 5.35156 98.4453 4.02344C98.4453 2.67969 98.8203 1.76563 99.5703 1.28125C100.336 0.78125 101.258 0.53125 102.336 0.53125ZM121.086 48.5312C117.43 48.5312 114.633 47.8906 112.695 46.6094C110.773 45.3438 109.812 43.5625 109.812 41.2656C109.812 39.6875 110.305 38.3672 111.289 37.3047C112.273 36.2422 113.719 35.4844 115.625 35.0312C114.891 34.7188 114.25 34.2109 113.703 33.5078C113.156 32.7891 112.883 32.0312 112.883 31.2344C112.883 30.2344 113.172 29.4062 113.75 28.75C114.328 28.0781 115.164 27.4219 116.258 26.7812C114.883 26.1875 113.789 25.2344 112.977 23.9219C112.18 22.6094 111.781 21.0625 111.781 19.2812C111.781 17.375 112.195 15.7578 113.023 14.4297C113.867 13.0859 115.086 12.0625 116.68 11.3594C118.289 10.6562 120.242 10.3047 122.539 10.3047C123.023 10.3047 123.586 10.3359 124.227 10.3984C124.867 10.4609 125.453 10.5312 125.984 10.6094C126.531 10.6875 126.898 10.75 127.086 10.7969H136.227V14.4297L132.125 15.4844C132.5 16.0625 132.781 16.6797 132.969 17.3359C133.156 17.9922 133.25 18.6875 133.25 19.4219C133.25 22.2344 132.266 24.4297 130.297 26.0078C128.344 27.5703 125.625 28.3516 122.141 28.3516C121.312 28.3047 120.531 28.2422 119.797 28.1641C119.438 28.4453 119.164 28.7422 118.977 29.0547C118.789 29.3672 118.695 29.6953 118.695 30.0391C118.695 30.3828 118.836 30.6719 119.117 30.9062C119.414 31.125 119.852 31.2969 120.43 31.4219C121.023 31.5312 121.758 31.5859 122.633 31.5859H127.086C129.961 31.5859 132.148 32.2031 133.648 33.4375C135.164 34.6719 135.922 36.4844 135.922 38.875C135.922 41.9375 134.641 44.3125 132.078 46C129.531 47.6875 125.867 48.5312 121.086 48.5312ZM121.391 43.8672C123.094 43.8672 124.555 43.7031 125.773 43.375C127.008 43.0625 127.953 42.6094 128.609 42.0156C129.266 41.4375 129.594 40.7422 129.594 39.9297C129.594 39.2734 129.398 38.75 129.008 38.3594C128.633 37.9844 128.055 37.7188 127.273 37.5625C126.508 37.4062 125.523 37.3281 124.32 37.3281H120.617C119.742 37.3281 118.953 37.4688 118.25 37.75C117.562 38.0312 117.016 38.4219 116.609 38.9219C116.203 39.4375 116 40.0312 116 40.7031C116 41.6875 116.469 42.4609 117.406 43.0234C118.359 43.5859 119.688 43.8672 121.391 43.8672ZM122.539 23.9922C123.883 23.9922 124.867 23.5781 125.492 22.75C126.117 21.9219 126.43 20.7969 126.43 19.375C126.43 17.7969 126.102 16.6172 125.445 15.8359C124.805 15.0391 123.836 14.6406 122.539 14.6406C121.227 14.6406 120.242 15.0391 119.586 15.8359C118.93 16.6172 118.602 17.7969 118.602 19.375C118.602 20.7969 118.922 21.9219 119.562 22.75C120.219 23.5781 121.211 23.9922 122.539 23.9922ZM147.711 0.53125V7.96094C147.711 9.25781 147.664 10.4922 147.57 11.6641C147.492 12.8359 147.43 13.6641 147.383 14.1484H147.758C148.32 13.2422 148.984 12.5078 149.75 11.9453C150.531 11.3828 151.391 10.9688 152.328 10.7031C153.266 10.4375 154.273 10.3047 155.352 10.3047C157.242 10.3047 158.891 10.6406 160.297 11.3125C161.703 11.9688 162.797 13.0078 163.578 14.4297C164.359 15.8359 164.75 17.6641 164.75 19.9141V37H157.602V21.6953C157.602 19.8203 157.258 18.4062 156.57 17.4531C155.883 16.5 154.82 16.0234 153.383 16.0234C151.945 16.0234 150.812 16.3594 149.984 17.0312C149.156 17.6875 148.57 18.6641 148.227 19.9609C147.883 21.2422 147.711 22.8125 147.711 24.6719V37H140.562V0.53125H147.711ZM183.148 31.7734C183.93 31.7734 184.688 31.6953 185.422 31.5391C186.172 31.3828 186.914 31.1875 187.648 30.9531V36.2734C186.883 36.6172 185.93 36.8984 184.789 37.1172C183.664 37.3516 182.43 37.4688 181.086 37.4688C179.523 37.4688 178.117 37.2188 176.867 36.7188C175.633 36.2031 174.656 35.3203 173.938 34.0703C173.234 32.8047 172.883 31.0469 172.883 28.7969V16.1641H169.461V13.1406L173.398 10.75L175.461 5.21875H180.031V10.7969H187.367V16.1641H180.031V28.7969C180.031 29.7969 180.312 30.5469 180.875 31.0469C181.453 31.5312 182.211 31.7734 183.148 31.7734Z" fill="#0F172A"/>
</svg>
